<?xml version="1.0" standalone="no"?>
<!DOCTYPE svg PUBLIC "-//W3C//DTD SVG 20010904//EN"
 "http://www.w3.org/TR/2001/REC-SVG-20010904/DTD/svg10.dtd">
<svg version="1.0" xmlns="http://www.w3.org/2000/svg"
 width="16.000000pt" height="16.000000pt" viewBox="0 0 16.000000 16.000000"
 preserveAspectRatio="xMidYMid meet">
<metadata>
Created by potrace 1.11, written by Peter Selinger 2001-2013
</metadata>
<g transform="translate(0.000000,16.000000) scale(0.002286,-0.002286)"
fill="#000000" stroke="none">
<path d="M0 3500 l0 -3500 317 0 318 0 -273 273 c-149 149 -272 277 -272 282
0 13 2182 2195 2195 2195 5 0 130 -120 277 -267 147 -147 270 -265 273 -262 2
3 253 466 556 1030 304 563 553 1025 555 1027 2 3 909 -483 922 -493 2 -2
-443 -831 -989 -1843 l-991 -1840 -77 42 c-42 22 -249 133 -459 246 -277 148
-381 209 -379 220 2 9 189 359 416 779 226 420 410 766 408 767 -2 2 -489
-483 -1082 -1076 l-1080 -1080 3183 0 3182 0 0 3032 c0 1667 -2 3029 -4 3027
-2 -2 -299 -1361 -661 -3019 -362 -1658 -661 -3019 -665 -3024 -11 -11 -1511
316 -1517 331 -4 10 1313 6062 1321 6071 3 3 1397 -298 1502 -324 l24 -6 0
456 0 456 -3500 0 -3500 0 0 -3500z"/>
</g>
</svg>
