<?xml version="1.0" encoding="utf-8"?>
<!-- Generator: Adobe Illustrator 19.0.0, SVG Export Plug-In . SVG Version: 6.00 Build 0)  -->
<svg version="1.1" id="Laag_1" xmlns="http://www.w3.org/2000/svg" xmlns:xlink="http://www.w3.org/1999/xlink" x="0px" y="0px"
	 viewBox="0 0 297.1 83.1" style="enable-background:new 0 0 297.1 83.1;" xml:space="preserve">
<style type="text/css">
	.st0{fill:#CCCCCC;}
</style>
<g id="XMLID_3_">
	<path id="XMLID_4_" class="st0" d="M22.7,45.2c0,2.9-1,5.3-2.9,7.2c-1.9,1.9-4.3,2.8-7.2,2.8H0v-55h12.6c2.9,0,5.3,0.9,7.2,2.8
		s2.8,4.2,2.8,7.2V45.2z M17.8,44.7V10.5c0-1.8-0.6-3.3-1.7-4.4c-1.1-1.1-2.6-1.7-4.4-1.7H4.9v46.4h6.5c1.9,0,3.4-0.5,4.6-1.6
		C17.2,48.1,17.8,46.6,17.8,44.7z"/>
	<path id="XMLID_7_" class="st0" d="M54.7,55.2h-5.1L39.3,25.7l0.7-1h8.7V4.5H36.1v50.7h-4.9v-55h18.4c1.1,0,2.1,0.4,2.8,1.1
		C53.2,2,53.6,2.9,53.6,4v20.9c0,2.6-1.8,4-5.3,4c-0.4,0-0.9,0-1.5-0.1c-0.7,0-1.2-0.1-1.5-0.1C48.4,37.6,51.5,46.3,54.7,55.2z"/>
	<path id="XMLID_9_" class="st0" d="M84.2,55.2h-4.9l-1.9-12.2H66.4l-1.9,12.2h-4.7V55l9.8-55h4.8L84.2,55.2z M76.7,38.6L71.9,8.8
		l-4.9,29.8H76.7z"/>
	<path id="XMLID_12_" class="st0" d="M113,51.3c0,1.1-0.4,2.1-1.1,2.8c-0.7,0.7-1.7,1.1-2.8,1.1H94.7c-1.1,0-2.1-0.4-2.8-1.1
		c-0.7-0.7-1.1-1.7-1.1-2.8V4c0-1.1,0.4-2.1,1.1-2.8c0.7-0.7,1.7-1.1,2.8-1.1h14.4c1.1,0,2.1,0.4,2.8,1.1C112.7,2,113,2.9,113,4
		v12.8h-4.9V4.5H95.7v46.4h12.4v-19h-5.9v-4.2H113V51.3z"/>
	<path id="XMLID_14_" class="st0" d="M161.3,28.6h-4v26.6h-17.8c-1.1,0-2.1-0.4-2.8-1.1c-0.7-0.7-1.1-1.7-1.1-2.8V32.6
		c0-1.6,0.6-2.7,1.8-3.5l4.1-2.7c-1.3-0.8-2.6-1.5-3.8-2.3c-1.3-1-1.9-2.2-1.9-3.7V4c0-1.1,0.4-2.1,1.1-2.8c0.7-0.7,1.7-1.1,2.8-1.1
		h13.9c1.1,0,2.1,0.4,2.8,1.1c0.7,0.7,1.1,1.7,1.1,2.8v11.5h-4.9V4.5h-12V21l5,3.3h15.8V28.6z M152.5,50.8V28.6h-7l-5,3.2v19H152.5z
		"/>
	<path id="XMLID_17_" class="st0" d="M203.9,45.2c0,2.9-1,5.3-2.9,7.2c-1.9,1.9-4.3,2.8-7.2,2.8h-12.6v-55h12.6
		c2.9,0,5.3,0.9,7.2,2.8s2.8,4.2,2.8,7.2V45.2z M199.1,44.7V10.5c0-1.8-0.6-3.3-1.7-4.4c-1.1-1.1-2.6-1.7-4.4-1.7h-6.8v46.4h6.5
		c1.9,0,3.4-0.5,4.6-1.6C198.5,48.1,199.1,46.6,199.1,44.7z"/>
	<path id="XMLID_20_" class="st0" d="M235.9,55.2h-5.1l-10.2-29.5l0.7-1h8.7V4.5h-12.6v50.7h-4.9v-55h18.4c1.1,0,2.1,0.4,2.8,1.1
		c0.7,0.7,1.1,1.7,1.1,2.8v20.9c0,2.6-1.8,4-5.3,4c-0.4,0-0.9,0-1.5-0.1s-1.2-0.1-1.5-0.1C229.6,37.6,232.8,46.3,235.9,55.2z"/>
	<path id="XMLID_22_" class="st0" d="M266.5,51.3c0,1.1-0.4,2.1-1.1,2.8c-0.7,0.7-1.7,1.1-2.8,1.1h-15.4c-1.1,0-2.1-0.4-2.8-1.1
		c-0.7-0.7-1.1-1.7-1.1-2.8V4c0-1.1,0.4-2.1,1.1-2.8c0.7-0.7,1.7-1.1,2.8-1.1h15.4c1.1,0,2.1,0.4,2.8,1.1c0.7,0.7,1.1,1.7,1.1,2.8
		V51.3z M261.6,50.8V4.5h-13.5v46.4H261.6z"/>
	<path id="XMLID_25_" class="st0" d="M297.1,29.4c0,1.1-0.4,2.1-1.1,2.8s-1.7,1.1-2.8,1.1h-13v21.8h-4.9v-55h17.9
		c1.1,0,2.1,0.4,2.8,1.1c0.7,0.7,1.1,1.7,1.1,2.8V29.4z M292.2,29V4.5h-12V29H292.2z"/>
</g>
<g id="XMLID_1_">
	<path id="XMLID_28_" class="st0" d="M39.1,75.5c0,1-0.3,1.8-1,2.4s-1.4,0.9-2.4,0.9h-4.2V60.5h4.2c1,0,1.8,0.3,2.4,0.9
		s0.9,1.4,0.9,2.4V75.5z M37.5,75.3V63.9c0-0.6-0.2-1.1-0.6-1.5s-0.9-0.6-1.5-0.6h-2.3v15.5h2.2c0.6,0,1.1-0.2,1.5-0.5
		S37.5,76,37.5,75.3z"/>
	<path id="XMLID_31_" class="st0" d="M47.7,71.2h-1.5v-2.4l-2.9,0.1v9.9h-1.6V67.4h1.6v0.3c0.5-0.1,1-0.2,1.6-0.2
		c0.6-0.1,1.1-0.1,1.6-0.1c0.9,0,1.3,0.4,1.3,1.3V71.2z"/>
	<path id="XMLID_33_" class="st0" d="M56.2,78.8h-1.5v-0.3c-0.6,0.1-1.2,0.2-1.9,0.2c-0.8,0.1-1.4,0.1-1.8,0.1
		c-0.9,0-1.3-0.4-1.3-1.3v-4.2c0-0.9,0.4-1.3,1.3-1.3h3.7v-3.4h-3.4v1.9h-1.5v-1.9c0-0.9,0.4-1.3,1.3-1.3h3.8c0.9,0,1.3,0.4,1.3,1.3
		V78.8z M54.6,77.4v-4h-3.5v4.1L54.6,77.4z"/>
	<path id="XMLID_36_" class="st0" d="M65.2,81.8c0,0.9-0.4,1.3-1.3,1.3h-3.7c-0.9,0-1.3-0.6-1.3-1.7c0-0.1,0-0.3,0-0.6s0-0.5,0-0.6
		h1.5v1.5h3.3v-3h-2.6c-0.7,0-1.3-0.2-1.7-0.7s-0.7-1-0.7-1.8v-6.7c0-0.7,0.2-1.2,0.6-1.7s0.9-0.7,1.6-0.7c0.2,0,1.1,0.1,2.8,0.4
		v-0.3h1.5V81.8z M63.6,77.4v-8.6c-1.2-0.1-2-0.1-2.2-0.1c-0.9,0-1.3,0.4-1.3,1.3v6.1c0,0.9,0.4,1.3,1.3,1.3H63.6z"/>
	<path id="XMLID_39_" class="st0" d="M78.9,67.4l-2.7,11.3L75,83.1h-1.5l1.1-4.4l-2.8-11.3h1.6l1.9,9l2-9H78.9z"/>
	<path id="XMLID_41_" class="st0" d="M87.3,77.5c0,0.9-0.4,1.3-1.3,1.3h-3.9c-0.9,0-1.3-0.4-1.3-1.3v-8.8c0-0.9,0.4-1.3,1.3-1.3H86
		c0.9,0,1.3,0.4,1.3,1.3V77.5z M85.8,77.4v-8.7h-3.4v8.7H85.8z"/>
	<path id="XMLID_44_" class="st0" d="M96.4,78.8h-1.5v-0.3c-0.6,0.1-1.2,0.2-1.9,0.2c-0.8,0.1-1.4,0.1-1.9,0.1
		c-0.8,0-1.3-0.4-1.3-1.3V67.4h1.5v10l3.5-0.1v-9.9h1.5V78.8z"/>
	<path id="XMLID_46_" class="st0" d="M104.9,71.2h-1.5v-2.4l-2.9,0.1v9.9h-1.6V67.4h1.6v0.3c0.5-0.1,1-0.2,1.6-0.2
		c0.6-0.1,1.1-0.1,1.6-0.1c0.9,0,1.3,0.4,1.3,1.3V71.2z"/>
	<path id="XMLID_48_" class="st0" d="M113.2,64.9h-1.6v-2h1.6V64.9z M113.2,78.8h-1.5V67.4h1.5V78.8z"/>
	<path id="XMLID_51_" class="st0" d="M127.3,78.8h-1.6v-10l-3.4,0.1v9.9h-1.5v-10l-3.4,0.1v9.9h-1.6V67.4h1.6v0.3
		c0.6-0.1,1.2-0.2,1.8-0.2c0.7-0.1,1.4-0.1,1.8-0.1c0.5,0,0.8,0.1,1.1,0.4c0.7-0.1,1.3-0.2,2-0.3c0.9-0.1,1.5-0.2,1.9-0.2
		c0.9,0,1.3,0.4,1.3,1.3V78.8z"/>
	<path id="XMLID_53_" class="st0" d="M136.3,78.8h-1.5v-0.3c-0.6,0.1-1.2,0.2-1.9,0.2c-0.8,0.1-1.4,0.1-1.8,0.1
		c-0.9,0-1.3-0.4-1.3-1.3v-4.2c0-0.9,0.4-1.3,1.3-1.3h3.7v-3.4h-3.4v1.9h-1.5v-1.9c0-0.9,0.4-1.3,1.3-1.3h3.8c0.9,0,1.3,0.4,1.3,1.3
		V78.8z M134.8,77.4v-4h-3.5v4.1L134.8,77.4z"/>
	<path id="XMLID_56_" class="st0" d="M145.3,81.8c0,0.9-0.4,1.3-1.3,1.3h-3.7c-0.9,0-1.3-0.6-1.3-1.7c0-0.1,0-0.3,0-0.6s0-0.5,0-0.6
		h1.5v1.5h3.3v-3h-2.6c-0.7,0-1.3-0.2-1.7-0.7s-0.7-1-0.7-1.8v-6.7c0-0.7,0.2-1.2,0.6-1.7s0.9-0.7,1.6-0.7c0.2,0,1.1,0.1,2.8,0.4
		v-0.3h1.5V81.8z M143.8,77.4v-8.6c-1.2-0.1-2-0.1-2.2-0.1c-0.9,0-1.3,0.4-1.3,1.3v6.1c0,0.9,0.4,1.3,1.3,1.3H143.8z"/>
	<path id="XMLID_59_" class="st0" d="M154.3,77.5c0,0.9-0.4,1.3-1.3,1.3h-3.8c-0.9,0-1.3-0.4-1.3-1.3v-8.8c0-0.9,0.4-1.3,1.3-1.3
		h3.8c0.9,0,1.3,0.4,1.3,1.3v4.1l-0.5,0.6h-4.3v4.1h3.4v-2.1h1.5V77.5z M152.8,72.1v-3.4h-3.4v3.4H152.8z"/>
	<path id="XMLID_62_" class="st0" d="M163,77.5c0,0.9-0.4,1.3-1.3,1.3h-3.6c-0.9,0-1.3-0.4-1.3-1.3v-2.6h1.5v2.6h3.2v-2.3l-4.1-3.3
		c-0.4-0.3-0.6-0.7-0.6-1.2v-1.9c0-0.9,0.4-1.3,1.3-1.3h3.5c0.9,0,1.3,0.4,1.3,1.3V71h-1.5v-2.3h-3.2v2l4.1,3.3
		c0.4,0.3,0.6,0.7,0.6,1.2V77.5z"/>
	<path id="XMLID_64_" class="st0" d="M171.8,64.9h-1.6v-2h1.6V64.9z M171.8,78.8h-1.5V67.4h1.5V78.8z"/>
	<path id="XMLID_67_" class="st0" d="M181,78.8h-1.6v-10l-3.4,0.1v9.9h-1.6V67.4h1.6v0.3c0.6-0.1,1.2-0.2,1.8-0.2
		c0.8-0.1,1.4-0.1,1.9-0.1c0.9,0,1.3,0.4,1.3,1.3V78.8z"/>
	<path id="XMLID_69_" class="st0" d="M187.6,78.8h-2.2c-0.9,0-1.3-0.4-1.3-1.3v-8.7h-1.4v-1.4h1.4v-3.6h1.5v3.6h2v1.4h-2v8.7h2V78.8
		z"/>
	<path id="XMLID_71_" class="st0" d="M196.2,77.5c0,0.9-0.4,1.3-1.3,1.3h-3.9c-0.9,0-1.3-0.4-1.3-1.3v-8.8c0-0.9,0.4-1.3,1.3-1.3
		h3.9c0.9,0,1.3,0.4,1.3,1.3V77.5z M194.6,77.4v-8.7h-3.4v8.7H194.6z"/>
	<path id="XMLID_74_" class="st0" d="M207.5,78.8h-2.2c-0.9,0-1.3-0.4-1.3-1.3v-8.7h-1.4v-1.4h1.4v-3.6h1.5v3.6h2v1.4h-2v8.7h2V78.8
		z"/>
	<path id="XMLID_76_" class="st0" d="M216.1,78.8h-1.6v-10l-3.4,0.1v9.9h-1.6V60.5h1.6v7.3c0.6-0.1,1.2-0.2,1.9-0.2
		c0.8-0.1,1.4-0.2,1.8-0.2c0.9,0,1.3,0.4,1.3,1.3V78.8z"/>
	<path id="XMLID_78_" class="st0" d="M220.2,64.9h-1.6v-2h1.6V64.9z M220.2,78.8h-1.5V67.4h1.5V78.8z"/>
	<path id="XMLID_81_" class="st0" d="M229,77.5c0,0.9-0.4,1.3-1.3,1.3h-3.6c-0.9,0-1.3-0.4-1.3-1.3v-2.6h1.5v2.6h3.2v-2.3l-4.1-3.3
		c-0.4-0.3-0.6-0.7-0.6-1.2v-1.9c0-0.9,0.4-1.3,1.3-1.3h3.5c0.9,0,1.3,0.4,1.3,1.3V71h-1.5v-2.3h-3.2v2l4.1,3.3
		c0.4,0.3,0.6,0.7,0.6,1.2V77.5z"/>
	<path id="XMLID_83_" class="st0" d="M240.5,61.8h-2.2v5.6h1.9v1.4h-1.9v10h-1.5v-10h-1.3v-1.4h1.3v-5.6c0-0.9,0.4-1.3,1.3-1.3h2.4
		V61.8z"/>
	<path id="XMLID_85_" class="st0" d="M243.5,64.9h-1.6v-2h1.6V64.9z M243.5,78.8H242V67.4h1.5V78.8z"/>
	<path id="XMLID_88_" class="st0" d="M252.5,77.5c0,0.9-0.4,1.3-1.3,1.3h-3.8c-0.9,0-1.3-0.4-1.3-1.3v-8.8c0-0.9,0.4-1.3,1.3-1.3
		h3.8c0.9,0,1.3,0.4,1.3,1.3v4.1l-0.5,0.6h-4.3v4.1h3.4v-2.1h1.5V77.5z M251,72.1v-3.4h-3.4v3.4H251z"/>
	<path id="XMLID_91_" class="st0" d="M256.7,78.8h-1.5V60.5h1.5V78.8z"/>
	<path id="XMLID_93_" class="st0" d="M265.9,78.8h-1.5v-0.3c-1.7,0.3-2.6,0.4-2.8,0.4c-0.7,0-1.2-0.2-1.6-0.7s-0.6-1-0.6-1.7v-6.7
		c0-0.7,0.2-1.3,0.7-1.8s1-0.7,1.7-0.7h2.6v-6.9h1.5V78.8z M264.3,77.4v-8.6h-2.2c-0.9,0-1.3,0.4-1.3,1.3v6.1c0,0.9,0.4,1.3,1.3,1.3
		C262.4,77.5,263.1,77.5,264.3,77.4z"/>
</g>
</svg>
